<svg width="75" height="90" viewBox="0 0 75 90" fill="none" xmlns="http://www.w3.org/2000/svg">
<path id="Vector" d="M45 0C31.2525 0 20.8275 3.23271 13.8263 9.8444C6.8325 16.4561 3.75 26.0942 3.75 37.5025V40.9002C1.605 42.9404 0 45.5655 0 48.7532C0 53.4786 3.3375 56.8313 7.5 58.4814C8.8875 62.8579 10.3988 67.4557 12.075 71.371C13.8938 75.6538 15.54 79.0515 17.8125 81.4592C20.3347 84.1547 23.3835 86.3037 26.77 87.7728C30.1565 89.2419 33.8086 90 37.5 90C41.1914 90 44.8435 89.2419 48.23 87.7728C51.6165 86.3037 54.6653 84.1547 57.1875 81.4592C59.46 79.0515 60.9863 75.6538 62.8125 71.371C64.485 67.4557 66.1125 62.8579 67.5 58.4851C71.6625 56.835 75 53.4823 75 48.757C75 45.5843 73.3875 42.9554 71.25 40.904V37.5025C71.25 26.9118 68.8387 19.3738 64.575 14.416C60.9525 10.2157 56.1187 8.49057 51.33 7.96553L48.3975 2.11514L47.3475 0H45ZM42.7725 7.73677L45.3525 12.8934C46.6012 15.391 47.0888 17.1686 47.1075 17.9299C47.1263 18.6912 47.1562 18.38 46.995 18.5225C46.6687 18.7963 43.5075 19.6101 39.6075 19.8088C35.7075 20.0076 31.1175 19.9138 26.835 21.5714C22.56 23.229 18.7987 27.6731 18.75 33.7597H26.25C26.28 30.062 27.1388 29.5295 29.5312 28.6032C31.9237 27.6768 36.0487 27.4031 40.08 27.1968C44.1075 26.9905 48.2663 27.2343 51.7987 24.2716C53.5612 22.7828 54.6862 20.2213 54.6112 17.7087C54.5925 17.1536 54.4613 16.6211 54.375 16.0586C56.0957 16.7915 57.6213 17.9165 58.83 19.3438C61.5487 22.5015 63.75 28.0594 63.75 37.5025V44.418L65.625 45.468C66.765 46.1318 67.5 47.3281 67.5 48.7532C67.5219 49.6946 67.1816 50.6085 66.5495 51.3063C65.9173 52.0041 65.0414 52.4326 64.1025 52.5035L61.5225 52.616L60.8213 55.0799C59.4381 59.5718 57.8337 63.9925 56.0138 68.3258C54.3263 72.2861 52.3875 75.6613 51.795 76.2913C43.8075 84.7294 31.1813 84.7294 23.2013 76.2913C22.6013 75.6613 20.67 72.2861 18.9788 68.322C17.1614 63.9886 15.5594 59.5679 14.1788 55.0762L13.4738 52.6122L10.8937 52.4997C9.95619 52.428 9.08179 51.9996 8.45049 51.3027C7.8192 50.6058 7.47903 49.6934 7.5 48.7532C7.5 47.3506 8.22375 46.1356 9.375 45.4718L11.25 44.4217V37.5025C11.25 27.3881 13.815 20.1163 18.9862 15.2335C23.7862 10.6957 31.6238 8.10804 42.7725 7.73301V7.73677ZM26.25 45.003C25.2554 45.003 24.3016 45.3981 23.5984 46.1014C22.8951 46.8047 22.5 47.7586 22.5 48.7532C22.5 49.7479 22.8951 50.7018 23.5984 51.4051C24.3016 52.1084 25.2554 52.5035 26.25 52.5035C27.2446 52.5035 28.1984 52.1084 28.9016 51.4051C29.6049 50.7018 30 49.7479 30 48.7532C30 47.7586 29.6049 46.8047 28.9016 46.1014C28.1984 45.3981 27.2446 45.003 26.25 45.003ZM48.75 45.003C47.7554 45.003 46.8016 45.3981 46.0983 46.1014C45.3951 46.8047 45 47.7586 45 48.7532C45 49.7479 45.3951 50.7018 46.0983 51.4051C46.8016 52.1084 47.7554 52.5035 48.75 52.5035C49.7446 52.5035 50.6984 52.1084 51.4017 51.4051C52.1049 50.7018 52.5 49.7479 52.5 48.7532C52.5 47.7586 52.1049 46.8047 51.4017 46.1014C50.6984 45.3981 49.7446 45.003 48.75 45.003Z" fill="#0070BB"/>
</svg>
