<svg width="29" height="29" viewBox="0 0 29 29" fill="none" xmlns="http://www.w3.org/2000/svg">
<path d="M1.17938 27.809C2.75188 29.397 5.48093 29.397 7.05344 27.809L14.5 20.4322L21.9466 27.809C23.5191 29.397 26.2481 29.397 27.8206 27.809C29.3931 26.2209 29.3931 23.4648 27.8206 21.8768L20.5161 14.5L27.8206 7.12321C29.3931 5.53515 29.3931 2.7791 27.8206 1.19104C26.2481 -0.397015 23.5191 -0.397015 21.9466 1.19104L14.5 8.56783L7.05344 1.19104C5.48093 -0.397015 2.76203 -0.397015 1.17938 1.19104C-0.393126 2.78935 -0.393126 5.53515 1.17938 7.12321L8.48391 14.5L1.17938 21.8768C-0.393126 23.6083 -0.393126 26.2209 1.17938 27.809Z" fill="#E31838"/>
</svg>
