<svg width="198" height="62" viewBox="0 0 198 62" fill="none" xmlns="http://www.w3.org/2000/svg">
<g id="Think-different-Academy_LOGO_oficialni_1 1" clip-path="url(#clip0_503_61)">
<g id="Elementy">
<g id="Group">
<g id="Group_2">
<g id="Group_3">
<path id="Vector" d="M76.6844 11.7581C77.2883 11.7581 77.5697 12.404 77.5697 13.0088C77.5697 13.6754 77.2471 14.2801 76.6844 14.2801H73.5347V26.6499C73.5347 27.234 72.8211 27.5364 72.1348 27.5364C71.4486 27.5364 70.735 27.234 70.735 26.6499V14.2801H67.5647C67.002 14.2801 66.6794 13.696 66.6794 13.0088C66.6794 12.404 66.9608 11.7581 67.5647 11.7581H76.6844Z" fill="#242424"/>
<path id="Vector_2" d="M81.6937 26.6567C81.6937 27.0896 81.0487 27.5432 80.2938 27.5432C79.4772 27.5432 78.9146 27.0896 78.9146 26.6567V12.1703C78.9146 11.6549 79.4772 11.3044 80.2938 11.3044C81.0487 11.3044 81.6937 11.648 81.6937 12.1703V18.8019C82.0849 17.9566 83.0524 17.1595 84.4111 17.1595C86.3943 17.1595 88.1167 19.1455 88.1167 21.5439V26.6636C88.1167 27.2477 87.403 27.5501 86.7168 27.5501C86.0718 27.5501 85.3375 27.2477 85.3375 26.6636V21.5439C85.3375 20.5749 84.4729 19.5991 83.4641 19.5991C82.5789 19.5991 81.6937 20.3344 81.6937 21.5439V26.6636V26.6567Z" fill="#242424"/>
<path id="Vector_3" d="M93.078 13.6341C93.078 14.3488 92.4124 14.9948 91.5683 14.9948C90.7243 14.9948 90.0381 14.3488 90.0381 13.6341C90.0381 12.9194 90.7037 12.2734 91.5683 12.2734C92.433 12.2734 93.078 12.8988 93.078 13.6341ZM92.9682 18.1491V26.6567C92.9682 27.0897 92.3438 27.5432 91.5683 27.5432C90.7929 27.5432 90.189 27.0897 90.189 26.6567V18.1491C90.189 17.6337 90.7723 17.2832 91.5683 17.2832C92.3643 17.2832 92.9682 17.6268 92.9682 18.1491Z" fill="#242424"/>
<path id="Vector_4" d="M97.909 26.6567C97.909 27.0896 97.264 27.5432 96.5092 27.5432C95.6926 27.5432 95.1299 27.0896 95.1299 26.6567V18.149C95.1299 17.6336 95.6926 17.2832 96.5092 17.2832C97.1748 17.2832 97.7375 17.6268 97.7375 18.149V18.795C98.1492 17.9498 99.1785 17.1526 100.626 17.1526C102.61 17.1526 104.332 19.1386 104.332 21.537V26.6567C104.332 27.2408 103.618 27.5432 102.932 27.5432C102.287 27.5432 101.553 27.2408 101.553 26.6567V21.537C101.553 20.568 100.709 19.5922 99.6795 19.5922C98.7943 19.5922 97.909 20.3275 97.909 21.537V26.6567Z" fill="#242424"/>
<path id="Vector_5" d="M112.395 21.3445L115.565 25.8801C115.675 26.0313 115.716 26.1825 115.716 26.3337C115.716 26.9796 114.81 27.715 114.145 27.715C113.863 27.715 113.63 27.5844 113.452 27.3507L110.542 23.0557L109.204 24.2858V26.6635C109.204 27.0965 108.559 27.55 107.784 27.55C107.008 27.55 106.425 27.0965 106.425 26.6635V12.1772C106.425 11.6618 106.988 11.3113 107.784 11.3113C108.58 11.3113 109.204 11.6549 109.204 12.1772V21.2208L113.259 17.4C113.41 17.2694 113.603 17.1869 113.822 17.1869C114.426 17.1869 115.181 17.9016 115.181 18.527C115.181 18.7194 115.092 18.8912 114.941 19.0424L112.395 21.3514V21.3445Z" fill="#242424"/>
<path id="Vector_6" d="M130.36 12.1635V26.6499C130.36 27.0828 129.777 27.5364 128.981 27.5364C128.288 27.5364 127.732 27.0828 127.732 26.6499V26.0245C127.3 26.911 126.112 27.7288 124.733 27.7288C122.729 27.7288 120.959 25.6122 120.959 23.3032V21.5302C120.959 19.1318 122.681 17.1458 124.795 17.1458C126.133 17.1458 127.101 17.943 127.574 18.7882V12.1567C127.574 11.6412 128.199 11.2908 128.974 11.2908C129.749 11.2908 130.353 11.6344 130.353 12.1567L130.36 12.1635ZM123.738 23.3101C123.738 24.3065 124.603 25.2961 125.612 25.2961C126.709 25.2961 127.574 24.1485 127.574 23.7018V21.5439C127.574 20.3344 126.558 19.5991 125.632 19.5991C124.575 19.5991 123.738 20.5681 123.738 21.5439V23.3169V23.3101Z" fill="#242424"/>
<path id="Vector_7" d="M135.424 13.6341C135.424 14.3488 134.759 14.9948 133.915 14.9948C133.07 14.9948 132.384 14.3488 132.384 13.6341C132.384 12.9194 133.05 12.2734 133.915 12.2734C134.779 12.2734 135.424 12.8988 135.424 13.6341ZM135.314 18.1491V26.6567C135.314 27.0897 134.69 27.5432 133.915 27.5432C133.139 27.5432 132.535 27.0897 132.535 26.6567V18.1491C132.535 17.6337 133.119 17.2832 133.915 17.2832C134.711 17.2832 135.314 17.6268 135.314 18.1491Z" fill="#242424"/>
<path id="Vector_8" d="M140.276 17.2832H142.904C143.357 17.2832 143.618 17.7986 143.618 18.3002C143.618 18.8019 143.357 19.3173 142.904 19.3173H140.276V26.6773C140.276 27.1927 139.61 27.5432 138.855 27.5432C138.1 27.5432 137.497 27.1996 137.497 26.6773V15.5377C137.497 13.1187 139.219 11.3044 141.291 11.3044H142.561C143.275 11.3044 143.618 11.8886 143.618 12.4727C143.618 13.0568 143.275 13.6616 142.561 13.6616H141.868C140.941 13.6616 140.276 14.2663 140.276 15.2353V17.2832Z" fill="#242424"/>
<path id="Vector_9" d="M147.611 17.2832H150.24C150.693 17.2832 150.953 17.7986 150.953 18.3002C150.953 18.8019 150.693 19.3173 150.24 19.3173H147.611V26.6773C147.611 27.1927 146.946 27.5432 146.191 27.5432C145.436 27.5432 144.832 27.1996 144.832 26.6773V15.5377C144.832 13.1187 146.555 11.3044 148.627 11.3044H149.897C150.61 11.3044 150.953 11.8886 150.953 12.4727C150.953 13.0568 150.61 13.6616 149.897 13.6616H149.203C148.277 13.6616 147.611 14.2663 147.611 15.2353V17.2832Z" fill="#242424"/>
<path id="Vector_10" d="M160.698 21.2142C160.698 23.049 159.661 23.1384 158.694 23.1384H154.316V23.4613C154.316 24.7121 155.331 25.5367 156.841 25.5367C158.262 25.5367 158.845 24.7189 159.49 24.7189C160.135 24.7189 160.547 25.5161 160.547 25.949C160.547 26.6843 159.058 27.7427 156.752 27.7427C153.691 27.7427 151.537 25.9697 151.537 23.317V21.4822C151.537 19.1525 153.63 17.1665 156.258 17.1665C158.632 17.1665 160.698 18.8295 160.698 21.2279V21.2142ZM157.466 21.4959C157.918 21.4959 158.09 21.386 158.09 20.9118C158.09 19.8947 157.225 19.2075 156.189 19.2075C155.222 19.2075 154.316 19.8535 154.316 20.8912V21.4959H157.466Z" fill="#242424"/>
<path id="Vector_11" d="M167.621 19.5922C166.372 19.5922 165.144 20.8223 165.144 22.7877V26.6498C165.144 27.0828 164.499 27.5363 163.724 27.5363C162.948 27.5363 162.365 27.0828 162.365 26.6498V18.1422C162.365 17.6268 162.928 17.2763 163.724 17.2763C164.417 17.2763 164.973 17.6199 164.973 18.1422V19.0287C165.405 18.1009 166.441 17.1526 167.621 17.1526H168.287C168.802 17.1526 169.303 17.7161 169.303 18.3621C169.303 19.0081 168.809 19.5922 168.287 19.5922H167.621Z" fill="#242424"/>
<path id="Vector_12" d="M179.047 21.2142C179.047 23.049 178.011 23.1384 177.043 23.1384H172.665V23.4613C172.665 24.7121 173.681 25.5367 175.19 25.5367C176.611 25.5367 177.194 24.7189 177.839 24.7189C178.484 24.7189 178.896 25.5161 178.896 25.949C178.896 26.6843 177.407 27.7427 175.101 27.7427C172.041 27.7427 169.886 25.9697 169.886 23.317V21.4822C169.886 19.1525 171.979 17.1665 174.607 17.1665C176.981 17.1665 179.047 18.8295 179.047 21.2279V21.2142ZM175.815 21.4959C176.268 21.4959 176.439 21.386 176.439 20.9118C176.439 19.8947 175.575 19.2075 174.545 19.2075C173.578 19.2075 172.672 19.8535 172.672 20.8912V21.4959H175.822H175.815Z" fill="#242424"/>
<path id="Vector_13" d="M183.487 26.6567C183.487 27.0896 182.842 27.5432 182.087 27.5432C181.27 27.5432 180.708 27.0896 180.708 26.6567V18.149C180.708 17.6336 181.27 17.2832 182.087 17.2832C182.752 17.2832 183.315 17.6268 183.315 18.149V18.795C183.727 17.9498 184.756 17.1526 186.204 17.1526C188.187 17.1526 189.91 19.1386 189.91 21.537V26.6567C189.91 27.2408 189.196 27.5432 188.51 27.5432C187.865 27.5432 187.13 27.2408 187.13 26.6567V21.537C187.13 20.568 186.286 19.5922 185.257 19.5922C184.372 19.5922 183.487 20.3275 183.487 21.537V26.6567Z" fill="#242424"/>
<path id="Vector_14" d="M194.747 24.0455C194.747 24.8907 195.049 25.1931 195.955 25.1931H196.799C197.595 25.1931 197.986 25.7772 197.986 26.3614C197.986 26.9455 197.595 27.5502 196.799 27.5502H195.955C193.368 27.5502 191.968 26.4919 191.968 24.0523V13.5793C191.968 13.0639 192.703 12.7134 193.348 12.7134C194.061 12.7134 194.747 13.057 194.747 13.5793V17.2902H197.293C197.746 17.2902 198.007 17.8056 198.007 18.3073C198.007 18.8089 197.746 19.3243 197.293 19.3243H194.747V24.0523V24.0455Z" fill="#242424"/>
</g>
<g id="Group_4">
<path id="Vector_15" d="M69.0605 39.7893C69.0605 39.7893 69.0743 39.7274 69.0811 39.6862L71.1123 33.0615C71.2084 32.7454 71.5995 32.6011 71.9838 32.6011C72.3681 32.6011 72.773 32.7454 72.869 33.0615L74.9002 39.6862C74.9139 39.7274 74.9208 39.7618 74.9208 39.7893C74.9208 40.1191 74.4267 40.3597 74.0562 40.3597C73.8229 40.3597 73.6445 40.2841 73.5964 40.0848L73.1984 38.6829H70.7898L70.3918 40.0848C70.3369 40.2841 70.1585 40.3597 69.932 40.3597C69.5615 40.3597 69.0674 40.126 69.0674 39.7893H69.0605ZM72.9033 37.6108L71.9907 34.3741L71.078 37.6108H72.9102H72.9033Z" fill="#242424"/>
<path id="Vector_16" d="M76.1697 38.298V37.4528C76.1697 36.2433 76.8559 35.2949 78.4411 35.2949C79.4292 35.2949 80.1223 35.7072 80.1223 36.1196C80.1223 36.3738 79.9096 36.7862 79.5871 36.7862C79.3538 36.7862 79.1685 36.4907 78.544 36.4907C77.8304 36.4907 77.5216 36.848 77.5216 37.4596V38.3049C77.5216 38.9165 77.8235 39.2739 78.5509 39.2739C79.1822 39.2739 79.34 38.9577 79.6008 38.9577C79.9713 38.9577 80.1772 39.3357 80.1772 39.6037C80.1772 40.0229 79.4292 40.4696 78.4411 40.4696C76.8559 40.4696 76.156 39.5419 76.156 38.3118L76.1697 38.298Z" fill="#242424"/>
<path id="Vector_17" d="M85.6395 37.3498V39.9338C85.6395 40.1743 85.3581 40.3667 84.9739 40.3667C84.6239 40.3667 84.3631 40.1743 84.3631 39.9338V39.6314C83.9857 40.0643 83.4916 40.4629 82.7642 40.4629C82.0369 40.4629 81.3987 40.0231 81.3987 39.061C81.3987 37.8515 82.4006 37.5148 83.8485 37.5148H84.2808V37.3773C84.2808 36.9238 84.0475 36.4084 83.3544 36.4084C82.5447 36.4084 82.4074 36.7382 82.1535 36.7382C81.8516 36.7382 81.6938 36.3671 81.6938 36.0648C81.6938 35.6318 82.627 35.3088 83.375 35.3088C85.015 35.3088 85.6395 36.2984 85.6395 37.3636V37.3498ZM84.2808 38.2089H84.1229C83.4161 38.2089 82.7574 38.2845 82.7574 38.8755C82.7574 39.2672 82.9976 39.4458 83.3132 39.4458C83.7455 39.4458 84.2808 38.951 84.2808 38.4356V38.2157V38.2089Z" fill="#242424"/>
<path id="Vector_18" d="M91.8429 32.8623V39.9337C91.8429 40.1467 91.5616 40.3666 91.1704 40.3666C90.8342 40.3666 90.5597 40.1467 90.5597 39.9337V39.6313C90.347 40.0642 89.7706 40.4628 89.0981 40.4628C88.1168 40.4628 87.259 39.432 87.259 38.305V37.4391C87.259 36.2708 88.1031 35.3019 89.1324 35.3019C89.7843 35.3019 90.2578 35.6936 90.4911 36.1059V32.8691C90.4911 32.6149 90.793 32.45 91.1773 32.45C91.5616 32.45 91.8498 32.6218 91.8498 32.8691L91.8429 32.8623ZM88.6177 38.2981C88.6177 38.786 89.0363 39.2671 89.5304 39.2671C90.0656 39.2671 90.4911 38.7104 90.4911 38.4905V37.4391C90.4911 36.8481 89.997 36.4907 89.5441 36.4907C89.0295 36.4907 88.6177 36.9649 88.6177 37.4391V38.305V38.2981Z" fill="#242424"/>
<path id="Vector_19" d="M97.9775 37.2741C97.9775 38.1675 97.4697 38.2087 96.9963 38.2087H94.8621V38.3668C94.8621 38.9784 95.3562 39.377 96.0904 39.377C96.7835 39.377 97.0717 38.9784 97.3874 38.9784C97.703 38.9784 97.902 39.3701 97.902 39.5763C97.902 39.9336 97.1747 40.449 96.0493 40.449C94.5533 40.449 93.5034 39.5831 93.5034 38.2912V37.3978C93.5034 36.2571 94.5259 35.2881 95.8091 35.2881C96.9688 35.2881 97.9775 36.099 97.9775 37.2672V37.2741ZM96.3992 37.4116C96.6188 37.4116 96.7012 37.3566 96.7012 37.1298C96.7012 36.635 96.2826 36.2983 95.7748 36.2983C95.3013 36.2983 94.8621 36.6144 94.8621 37.1229V37.4184H96.3992V37.4116Z" fill="#242424"/>
<path id="Vector_20" d="M102.623 37.4322C102.623 36.8412 102.205 36.4838 101.759 36.4838C101.347 36.4838 100.935 36.8137 100.935 37.4322V39.9267C100.935 40.1398 100.619 40.3597 100.249 40.3597C99.8509 40.3597 99.5764 40.1398 99.5764 39.9267V35.776C99.5764 35.5217 99.8509 35.3568 100.249 35.3568C100.578 35.3568 100.846 35.5286 100.846 35.776V36.0921C101.079 35.6798 101.539 35.2881 102.232 35.2881C102.829 35.2881 103.323 35.721 103.55 36.3395C103.92 35.6248 104.531 35.2881 105.135 35.2881C106.095 35.2881 107.008 36.0578 107.008 37.4253V39.9199C107.008 40.1329 106.692 40.3528 106.322 40.3528C105.951 40.3528 105.649 40.1329 105.649 39.9199V37.4253C105.649 36.7931 105.217 36.4701 104.798 36.4701C104.38 36.4701 103.968 36.8068 103.968 37.4184V39.9336C103.968 40.2291 103.618 40.3528 103.282 40.3528C102.966 40.3528 102.609 40.2291 102.609 39.9336V37.4253L102.623 37.4322Z" fill="#242424"/>
<path id="Vector_21" d="M108.326 36.1128C108.305 36.0578 108.284 35.9959 108.284 35.9341C108.284 35.5768 108.84 35.2812 109.19 35.2812C109.369 35.2812 109.526 35.3431 109.581 35.5149L110.844 38.6623L111.866 35.5149C111.921 35.3431 112.079 35.2812 112.223 35.2812C112.553 35.2812 113.15 35.5767 113.15 35.9547C113.15 35.9959 113.136 36.0578 113.115 36.1128L111.578 40.0436C111.084 41.3081 110.789 42.6894 108.909 42.6894C108.559 42.6894 108.291 42.6138 108.291 42.1121C108.291 41.8097 108.387 41.5417 108.641 41.5417C109.101 41.5417 110.075 41.26 110.144 39.9955L108.332 36.1196L108.326 36.1128Z" fill="#242424"/>
</g>
</g>
<g id="Group_5">
<g id="Group_6">
<path id="Vector_22" d="M30.5776 23.5781C29.7336 23.5781 29.0474 24.2653 29.0474 25.1106V29.4125C29.0474 30.2578 29.7336 30.945 30.5776 30.945C31.4217 30.945 32.1079 30.2578 32.1079 29.4125V25.1106C32.1079 24.2653 31.4217 23.5781 30.5776 23.5781Z" fill="#0070BB"/>
<path id="Vector_23" d="M25.1018 23.5781C24.2577 23.5781 23.5715 24.2653 23.5715 25.1106V29.4125C23.5715 30.2578 24.2577 30.945 25.1018 30.945C25.9458 30.945 26.632 30.2578 26.632 29.4125V25.1106C26.632 24.2653 25.9458 23.5781 25.1018 23.5781Z" fill="#0070BB"/>
<path id="Vector_24" d="M28.2857 0L0 8.35646V45.6444L28.2857 61.9931L56.5714 45.6444V8.35646L28.2857 0ZM32.3275 13.0432L32.7804 11.8612C33.0823 11.0709 33.9744 10.6792 34.7567 10.9816C35.5459 11.284 35.9439 12.1705 35.6351 12.9608L35.1822 14.1428C34.9488 14.7544 34.3724 15.1255 33.7548 15.1255C33.5696 15.1255 33.3843 15.0911 33.2059 15.0224C32.4167 14.72 32.0187 13.8335 32.3275 13.0432ZM20.9226 11.3527C21.6981 11.0022 22.597 11.3527 22.9401 12.1292L23.4548 13.2838C23.7979 14.0534 23.4548 14.9605 22.6794 15.3041C22.4804 15.3935 22.2676 15.4347 22.0549 15.4347C21.4716 15.4347 20.9089 15.098 20.655 14.5276L20.1404 13.3731C19.7973 12.6034 20.1404 11.6963 20.9158 11.3527H20.9226ZM11.4049 21.4066C11.7068 20.6163 12.592 20.2246 13.3812 20.5269L14.5614 20.9805C15.3506 21.2829 15.7486 22.1694 15.4467 22.9597C15.2134 23.5713 14.6369 23.9424 14.0193 23.9424C13.8341 23.9424 13.6488 23.908 13.4704 23.8393L12.2901 23.3857C11.5009 23.0833 11.1029 22.1968 11.4117 21.4066H11.4049ZM14.9457 35.515L13.7929 36.0304C13.5939 36.1197 13.3812 36.1609 13.1684 36.1609C12.5852 36.1609 12.0225 35.8242 11.7686 35.2538C11.4255 34.4841 11.7686 33.577 12.544 33.2334L13.6968 32.718C14.4654 32.3675 15.3712 32.718 15.7143 33.4946C16.0574 34.2642 15.7143 35.1714 14.9389 35.515H14.9457ZM27.8328 47.493C25.582 47.493 23.7636 45.665 23.7636 43.4179H31.9021C31.9021 45.6719 30.0836 47.493 27.8328 47.493ZM34.4754 42.1122H21.1903V37.5491H34.4754V42.1122ZM35.8203 35.5837L35.3743 36.0304H20.2982L19.8522 35.5837C15.4467 31.1718 15.4467 23.9973 19.8522 19.5855C24.1135 15.311 31.559 15.311 35.8272 19.5855C37.9613 21.7227 39.1347 24.5609 39.1347 27.5846C39.1347 30.6083 37.9613 33.4465 35.8272 35.5837H35.8203ZM41.6257 20.252L42.7785 19.7366C43.5471 19.393 44.4529 19.7366 44.796 20.5132C45.1391 21.2829 44.796 22.19 44.0206 22.5336L42.8678 23.049C42.6687 23.1383 42.456 23.1796 42.2433 23.1796C41.66 23.1796 41.0973 22.8428 40.8434 22.2724C40.5003 21.5028 40.8434 20.5957 41.6188 20.252H41.6257ZM45.1666 34.3605C44.9333 34.9721 44.3568 35.3432 43.7392 35.3432C43.554 35.3432 43.3687 35.3088 43.1903 35.2401L42.01 34.7865C41.2208 34.4841 40.8228 33.5976 41.1316 32.8074C41.4336 32.0171 42.3256 31.6254 43.1079 31.9277L44.2882 32.3813C45.0774 32.6837 45.4754 33.5702 45.1666 34.3605Z" fill="#0070BB"/>
</g>
<g id="Group_7">
<path id="Vector_25" d="M19.8453 35.5837C15.4398 31.1718 15.4398 23.9973 19.8453 19.5855C22.0892 17.3383 25.2046 16.3006 28.2857 16.4174V0L0 8.35646V45.6444L28.2857 61.9931V47.438C28.1347 47.4518 27.9906 47.4861 27.8328 47.4861C25.582 47.4861 23.7636 45.6582 23.7636 43.411H28.2857V42.1053H21.1903V37.5422H28.2857V36.0304H20.2982L19.8522 35.5837H19.8453ZM20.9226 11.3527C21.6981 11.0022 22.597 11.3527 22.9401 12.1292L23.4548 13.2838C23.7979 14.0534 23.4548 14.9605 22.6794 15.3041C22.4804 15.3935 22.2676 15.4347 22.0549 15.4347C21.4716 15.4347 20.9089 15.098 20.655 14.5276L20.1404 13.3731C19.7973 12.6034 20.1404 11.6963 20.9158 11.3527H20.9226ZM11.4049 21.4066C11.7068 20.6163 12.592 20.2246 13.3812 20.5269L14.5614 20.9805C15.3506 21.2829 15.7486 22.1694 15.4467 22.9597C15.2134 23.5713 14.6369 23.9424 14.0193 23.9424C13.8341 23.9424 13.6488 23.908 13.4704 23.8393L12.2901 23.3857C11.5009 23.0833 11.1029 22.1968 11.4117 21.4066H11.4049ZM14.9457 35.515L13.7929 36.0304C13.5939 36.1197 13.3812 36.1609 13.1684 36.1609C12.5852 36.1609 12.0225 35.8242 11.7686 35.2538C11.4255 34.4841 11.7686 33.577 12.544 33.2334L13.6968 32.718C14.4654 32.3675 15.3712 32.718 15.7143 33.4946C16.0574 34.2642 15.7143 35.1714 14.9389 35.515H14.9457Z" fill="#0257A5"/>
<path id="Vector_26" d="M25.1018 23.5781C24.2577 23.5781 23.5715 24.2653 23.5715 25.1106V29.4125C23.5715 30.2578 24.2577 30.945 25.1018 30.945C25.9458 30.945 26.632 30.2578 26.632 29.4125V25.1106C26.632 24.2653 25.9458 23.5781 25.1018 23.5781Z" fill="#0257A5"/>
</g>
</g>
</g>
</g>
</g>
<defs>
<clipPath id="clip0_503_61">
<rect width="198" height="62" fill="white"/>
</clipPath>
</defs>
</svg>
