<svg width="14" height="14" viewBox="0 0 14 14" fill="none" xmlns="http://www.w3.org/2000/svg">
<path id="Vector" d="M0.546443 12.7586C1.27503 13.4871 2.53949 13.4871 3.26808 12.7586L6.71831 9.37414L10.1685 12.7586C10.8971 13.4871 12.1616 13.4871 12.8902 12.7586C13.6188 12.03 13.6188 10.7655 12.8902 10.0369L9.50575 6.6525L12.8902 3.26808C13.6188 2.53949 13.6188 1.27503 12.8902 0.546443C12.1616 -0.182148 10.8971 -0.182148 10.1685 0.546443L6.71831 3.93086L3.26808 0.546443C2.53949 -0.182148 1.27973 -0.182148 0.546443 0.546443C-0.182148 1.27973 -0.182148 2.53949 0.546443 3.26808L3.93086 6.6525L0.546443 10.0369C-0.182148 10.8313 -0.182148 12.03 0.546443 12.7586Z" fill="white"/>
</svg>
